<?xml version="1.0" ?><svg data-name="Layer 1" id="Layer_1" viewBox="0 0 64 64" xmlns="http://www.w3.org/2000/svg"><defs><style>
      .cls-1 {
        fill: #e7ecef;
      }

      .cls-2 {
        fill: #ffbc0a;
      }

      .cls-3 {
        fill: #8b8c89;
      }

      .cls-4 {
        fill: #bc6c25;
      }

      .cls-5 {
        fill: #a3cef1;
      }

      .cls-6 {
        fill: #dda15e;
      }

      .cls-7 {
        fill: #274c77;
      }
    </style></defs><path class="cls-5" d="M29.22,21.15h0c2.65-4.29,7.38-7.15,12.78-7.15,8.28,0,15,6.72,15,15,0,4.47-1.95,8.48-5.06,11.23h-.01s.01,0,.01,0l.06-.23h-18.86c-1.82-1.85-4.35-3-7.14-3h-3v-2.29s1.58-.67,1.58-.67c1.47-.63,2.42-2.08,2.42-3.68v-.76l2.2-.44c.46-.09,.8-.5,.8-.98v-1.45c.29,.17,.64,.27,1,.27,1.1,0,2-.9,2-2s-.9-2-2-2c-.42,0-.81,.13-1.14,.36-.12-.77-.34-1.51-.64-2.21h0"/><path class="cls-6" d="M24.58,34.04l-3,1.29c-1.01,.43-2.15,.43-3.15,0l-3-1.29c-1.47-.63-2.42-2.08-2.42-3.68v-5.36c0-3.31,2.69-6,6-6h2c3.31,0,6,2.69,6,6v5.36c0,1.6-.95,3.05-2.42,3.68Z"/><path class="cls-7" d="M33.14,40c-1.82-1.85-4.35-3-7.14-3h-3c0,1.66-1.34,3-3,3s-3-1.34-3-3h-3c-5.52,0-10,4.48-10,10v7H26l4-14h3.14Z"/><path class="cls-6" d="M15,50h2c1.1,0,2,.9,2,2v2h-4v-4h0Z"/><path class="cls-7" d="M10,26.73c-.29,.17-.64,.27-1,.27-1.1,0-2-.9-2-2s.9-2,2-2c.42,0,.81,.13,1.14,.36"/><path class="cls-7" d="M30,26.73c.29,.17,.64,.27,1,.27,1.1,0,2-.9,2-2s-.9-2-2-2c-.42,0-.81,.13-1.14,.36"/><path class="cls-4" d="M17,34.71l1.42,.61c1.01,.44,2.15,.44,3.16,0l1.42-.61v2.29c0,1.66-1.34,3-3,3s-3-1.34-3-3v-2.29Z"/><polyline class="cls-3" points="26 54 30 40 52 40 48 54"/><path class="cls-7" d="M26.4,22.38h-.01c-.57-.23-1.23-.38-2.06-.38-4.33,0-4.33,4-8.67,4-1.13,0-1.97-.27-2.66-.67v-.33c0-3.31,2.69-6,6-6h2c2.37,0,4.42,1.38,5.39,3.38h.01Z"/><path class="cls-1" d="M27,29.6v-4.6c0-3.31-2.69-6-6-6h-2c-3.31,0-6,2.69-6,6v4h-2c-.55,0-1-.45-1-1v-3c0-5.52,4.48-10,10-10,2.76,0,5.26,1.12,7.07,2.93s2.93,4.31,2.93,7.07v3.18c0,.48-.34,.89-.8,.98l-2.2,.44Z"/><path class="cls-5" d="M39,46c.55,0,1,.45,1,1s-.45,1-1,1v-2Z"/><circle class="cls-2" cx="42" cy="29" r="2"/><path class="cls-7" d="M51.94,40.23h-.01s-1.67,5.88-1.67,5.88h0c6.35-3.07,10.74-9.57,10.74-17.11,0-10.49-8.51-19-19-19-6.24,0-11.77,3.01-15.23,7.65,.1,.09,.2,.18,.3,.28,.91,.91,1.65,2,2.15,3.21h0s0,0,0,0c2.65-4.28,7.38-7.14,12.78-7.14,8.28,0,15,6.72,15,15,0,4.47-1.95,8.48-5.06,11.23h-.01"/><path d="M45,29c0-1.3-.84-2.4-2-2.82v-7.18h-2v7.18c-1.16,.41-2,1.51-2,2.82,0,1.65,1.35,3,3,3,.18,0,.36-.02,.53-.05l2.6,4.55,1.74-.99-2.61-4.55c.45-.53,.74-1.2,.74-1.95Zm-3,1c-.55,0-1-.45-1-1s.45-1,1-1,1,.45,1,1-.45,1-1,1Z"/><path d="M42,9c-6.02,0-11.57,2.62-15.38,7.23-1.84-1.4-4.13-2.23-6.62-2.23-5.04,0-9.28,3.41-10.58,8.03-.14-.02-.28-.03-.42-.03-1.65,0-3,1.35-3,3s1.35,3,3,3c0,1.1,.9,2,2,2h1v.36c0,2,1.19,3.81,3.03,4.6l.97,.42v.63h-2c-6.07,0-11,4.93-11,11v6h-1v2H52v-2h-2.67l1.77-6.2c6.63-3.4,10.9-10.33,10.9-17.8,0-11.03-8.97-20-20-20ZM9,25v1c-.55,0-1-.45-1-1s.45-1,1-1c.02,0,.03,0,.05,0-.03,.33-.05,.66-.05,.99Zm3,0v3h-1v-3c0-4.96,4.04-9,9-9s9,4.04,9,9v3.18l-1,.2v-3.38c0-3.86-3.14-7-7-7h-2c-3.86,0-7,3.14-7,7Zm11.99-3.98c-2.33,.1-3.57,1.23-4.67,2.24-1.05,.97-1.88,1.74-3.66,1.74-.61,0-1.14-.09-1.63-.28,.15-2.62,2.31-4.72,4.97-4.72h2c1.13,0,2.16,.39,2.99,1.02Zm-8.18,12.1c-1.1-.47-1.82-1.56-1.82-2.76v-3.56c.52,.13,1.07,.2,1.66,.2,2.56,0,3.87-1.2,5.02-2.27,1.05-.97,1.88-1.73,3.65-1.73,.49,0,.91,.08,1.32,.2,.22,.56,.35,1.16,.35,1.8v3.78l-6.2,1.24,.39,1.96,5.77-1.15c-.16,1.01-.82,1.88-1.78,2.29l-3,1.29c-.75,.32-1.61,.32-2.36,0l-3-1.29Zm6.18,3.11v.77c0,1.1-.9,2-2,2s-2-.9-2-2v-.77h.03c.63,.28,1.3,.41,1.97,.41s1.34-.13,1.97-.4h.03Zm-4,16.76h-2v-2h1c.55,0,1,.45,1,1v1Zm2,0v-1c0-1.65-1.35-3-3-3h-6v-2.59l1.71-1.71-1.41-1.41-2,2c-.19,.19-.29,.44-.29,.71v4c0,.55,.45,1,1,1h4v2H5v-6c0-4.96,4.04-9,9-9h2.13c.45,1.72,2.01,3,3.87,3s3.43-1.28,3.87-3h2.13c1.45,0,2.85,.35,4.11,1h-.11c-.45,0-.84,.3-.96,.73l-3.79,13.27h-5.25Zm27.25,0H27.33l3.43-12h19.92l-3.43,12Zm-13.72-14c-2.05-1.93-4.71-3-7.53-3h-2v-.63l.97-.42c1.82-.78,3-2.56,3.03-4.54l1.4-.28c.93-.19,1.61-1.01,1.61-1.96v-.18c1.65,0,3-1.35,3-3s-1.35-3-3-3c-.14,0-.28,.01-.42,.03-.07-.26-.16-.51-.25-.76,1.03-1.55,2.33-2.85,3.82-3.86l.48,.84,1.73-1-.49-.84c1.58-.77,3.31-1.24,5.12-1.36v.96h2v-.95c1.82,.13,3.54,.61,5.11,1.37l-.47,.82,1.73,1,.48-.83c1.47,1,2.74,2.27,3.74,3.74l-.83,.48,1,1.73,.82-.47c.76,1.56,1.24,3.29,1.37,5.11h-.95v2h.95c-.13,1.78-.59,3.51-1.37,5.11l-.82-.47-1,1.73,.81,.47c-.52,.77-1.13,1.5-1.8,2.17h-18.24Zm-2.58-14.99s.03,0,.05,0c.55,0,1,.45,1,1s-.45,1-1,1v-1c0-.33-.02-.66-.05-.99Zm20.94,20.03l.94-3.27c3.29-3.02,5.18-7.29,5.18-11.76,0-8.82-7.18-16-16-16-5.01,0-9.63,2.3-12.66,6.22-.36-.59-.78-1.13-1.24-1.64,3.43-4.19,8.45-6.58,13.9-6.58,9.93,0,18,8.07,18,18,0,6.16-3.06,11.73-8.11,15.04Z"/></svg>